<svg viewBox="0 0 1500 1320" xmlns="http://www.w3.org/2000/svg" font-family="'Segoe UI', 'Helvetica Neue', system-ui, sans-serif">
  <defs>
    <marker id="aGray" viewBox="0 0 10 10" refX="8" refY="5" markerWidth="7" markerHeight="7" orient="auto-start-reverse">
      <path d="M0,0 L10,5 L0,10 z" fill="#9aa0ac"/>
    </marker>
    <marker id="aRed" viewBox="0 0 10 10" refX="8" refY="5" markerWidth="8" markerHeight="8" orient="auto-start-reverse">
      <path d="M0,0 L10,5 L0,10 z" fill="#cf4436"/>
    </marker>
  </defs>

  <rect x="0" y="0" width="1500" height="1320" fill="#ffffff"/>

  <!-- Title -->
  <text x="750" y="42" text-anchor="middle" font-size="27" font-weight="700" fill="#20242e">FITing-Tree vs. PGM-Index — routing the same query</text>
  <text x="750" y="68" text-anchor="middle" font-size="15" fill="#6b7280">Searching for key k = 76 (ε = 1). Same data, same leaf segments — the difference is everything above the leaves.</text>

  <!-- Legend -->
  <g font-size="13" fill="#3a3f4b">
    <rect x="402" y="84" width="16" height="13" rx="3" fill="#e8edf8" stroke="#2f4b86"/>
    <text x="424" y="95">key comparison (B+-tree routing)</text>
    <rect x="678" y="84" width="16" height="13" rx="3" fill="#fbedd4" stroke="#b06a14"/>
    <text x="700" y="95">line evaluation (learned prediction)</text>
    <rect x="952" y="84" width="16" height="13" rx="3" fill="#d8ece0" stroke="#2c6f50"/>
    <text x="974" y="95">binary search in 2ε window</text>
  </g>

  <!-- Divider -->
  <line x1="750" y1="118" x2="750" y2="650" stroke="#dfe2e9" stroke-width="1.5" stroke-dasharray="3 5"/>

  <!-- Panel headers -->
  <text x="380" y="133" text-anchor="middle" font-size="18" font-weight="700" fill="#2f4b86">FITing-Tree</text>
  <text x="380" y="151" text-anchor="middle" font-size="12.5" fill="#8b919d">B+-tree on top · learned step only at the leaf</text>
  <text x="1120" y="133" text-anchor="middle" font-size="18" font-weight="700" fill="#b06a14">PGM-Index</text>
  <text x="1120" y="151" text-anchor="middle" font-size="12.5" fill="#8b919d">segments all the way down · learned step at every level</text>

  <!-- ============ FAINT CONNECTORS (FIT) ============ -->
  <g stroke="#d3d7df" stroke-width="1.2" fill="none">
    <path d="M380,212 L140,284"/><path d="M380,212 L610,284"/>
    <path d="M140,332 L97,404"/><path d="M140,332 L175,404"/><path d="M140,332 L253,404"/>
    <path d="M380,332 L331,404"/><path d="M380,332 L487,404"/>
    <path d="M610,332 L565,404"/><path d="M610,332 L643,404"/>
  </g>
  <!-- ============ FAINT CONNECTORS (PGM) ============ -->
  <g stroke="#d3d7df" stroke-width="1.2" fill="none">
    <path d="M1120,212 L928,284"/><path d="M1120,212 L1184,284"/><path d="M1120,212 L1312,284"/>
    <path d="M928,332 L837,404"/><path d="M928,332 L915,404"/>
    <path d="M1056,332 L993,404"/><path d="M1056,332 L1071,404"/>
    <path d="M1184,332 L1227,404"/>
    <path d="M1312,332 L1305,404"/><path d="M1312,332 L1383,404"/>
  </g>

  <!-- ============ RED PATH (FIT) ============ -->
  <g stroke="#cf4436" stroke-width="2.4" fill="none" marker-end="url(#aRed)">
    <path d="M380,212 L380,278"/>
    <path d="M380,332 L405,398"/>
    <path d="M409,450 C409,500 600,505 769,544"/>
  </g>
  <!-- ============ RED PATH (PGM) ============ -->
  <g stroke="#cf4436" stroke-width="2.4" fill="none" marker-end="url(#aRed)">
    <path d="M1120,212 L1058,278"/>
    <path d="M1056,332 L1135,398"/>
    <path d="M1149,450 C1149,500 940,505 773,544"/>
  </g>

  <!-- ============ FIT NODES ============ -->
  <!-- Tier A: B+-tree root -->
  <rect x="300" y="162" width="160" height="48" rx="7" fill="#e8edf8" stroke="#2f4b86" stroke-width="2"/>
  <text x="380" y="182" text-anchor="middle" font-size="12" fill="#2f4b86" font-weight="600">B+-tree root</text>
  <text x="380" y="200" text-anchor="middle" font-size="13" font-family="ui-monospace, monospace" fill="#20242e">48 │ 158</text>

  <!-- Tier B: B+-tree leaves -->
  <rect x="70" y="284" width="140" height="48" rx="7" fill="#eef1f8" stroke="#9fb0d4" stroke-width="1.4"/>
  <text x="140" y="313" text-anchor="middle" font-size="13" font-family="ui-monospace, monospace" fill="#3a3f4b">2 · 23 · 31</text>
  <rect x="310" y="284" width="140" height="48" rx="7" fill="#e8edf8" stroke="#2f4b86" stroke-width="2"/>
  <text x="380" y="307" text-anchor="middle" font-size="11" fill="#2f4b86" font-weight="600">B+-tree leaf</text>
  <text x="380" y="324" text-anchor="middle" font-size="13" font-family="ui-monospace, monospace" fill="#20242e">48 · 71 · 102</text>
  <rect x="550" y="284" width="120" height="48" rx="7" fill="#eef1f8" stroke="#9fb0d4" stroke-width="1.4"/>
  <text x="610" y="313" text-anchor="middle" font-size="13" font-family="ui-monospace, monospace" fill="#3a3f4b">158 · 187</text>

  <!-- Tier C: leaf segments (8) -->
  <g font-family="ui-monospace, monospace" font-size="12.5">
    <rect x="62"  y="404" width="70" height="46" rx="6" fill="#f5f6f9" stroke="#c8cdd6"/><text x="97"  y="432" text-anchor="middle" fill="#6b7280">2</text>
    <rect x="140" y="404" width="70" height="46" rx="6" fill="#f5f6f9" stroke="#c8cdd6"/><text x="175" y="432" text-anchor="middle" fill="#6b7280">23</text>
    <rect x="218" y="404" width="70" height="46" rx="6" fill="#f5f6f9" stroke="#c8cdd6"/><text x="253" y="432" text-anchor="middle" fill="#6b7280">31</text>
    <rect x="296" y="404" width="70" height="46" rx="6" fill="#f5f6f9" stroke="#c8cdd6"/><text x="331" y="432" text-anchor="middle" fill="#6b7280">48</text>
    <rect x="374" y="404" width="70" height="46" rx="6" fill="#d8ece0" stroke="#2c6f50" stroke-width="2"/><text x="409" y="427" text-anchor="middle" fill="#2c6f50" font-weight="700">71</text><text x="409" y="442" text-anchor="middle" font-size="8.5" fill="#2c6f50">slope·k+ic</text>
    <rect x="452" y="404" width="70" height="46" rx="6" fill="#f5f6f9" stroke="#c8cdd6"/><text x="487" y="432" text-anchor="middle" fill="#6b7280">102</text>
    <rect x="530" y="404" width="70" height="46" rx="6" fill="#f5f6f9" stroke="#c8cdd6"/><text x="565" y="432" text-anchor="middle" fill="#6b7280">158</text>
    <rect x="608" y="404" width="70" height="46" rx="6" fill="#f5f6f9" stroke="#c8cdd6"/><text x="643" y="432" text-anchor="middle" fill="#6b7280">187</text>
  </g>
  <text x="380" y="470" text-anchor="middle" font-size="11.5" fill="#8b919d" font-style="italic">leaf segments (key, slope, ptr)</text>

  <!-- FIT step captions -->
  <text x="478" y="190" font-size="11.5" fill="#2f4b86">① 76 vs 48,158 → middle</text>
  <text x="478" y="312" font-size="11.5" fill="#2f4b86">② 76 vs 48,71,102 → 71</text>
  <text x="455" y="432" font-size="11.5" fill="#2c6f50">③ interpolate ≈ 17</text>

  <!-- ============ PGM NODES ============ -->
  <!-- Tier A: root segment -->
  <rect x="1040" y="162" width="160" height="48" rx="7" fill="#fbedd4" stroke="#b06a14" stroke-width="2"/>
  <text x="1120" y="182" text-anchor="middle" font-size="11" fill="#b06a14" font-weight="600">level 0 · root segment</text>
  <text x="1120" y="200" text-anchor="middle" font-size="12.5" font-family="ui-monospace, monospace" fill="#20242e">seg(key 2)</text>

  <!-- Tier B: level 1 (4 segments) -->
  <g font-family="ui-monospace, monospace" font-size="12.5">
    <rect x="874"  y="284" width="108" height="48" rx="7" fill="#fdf4e6" stroke="#d9ad6a" stroke-width="1.4"/><text x="928"  y="313" text-anchor="middle" fill="#6b7280">2</text>
    <rect x="1002" y="284" width="108" height="48" rx="7" fill="#fbedd4" stroke="#b06a14" stroke-width="2"/><text x="1056" y="307" text-anchor="middle" font-size="10.5" fill="#b06a14" font-weight="600">seg</text><text x="1056" y="323" text-anchor="middle" fill="#20242e" font-weight="700">31</text>
    <rect x="1130" y="284" width="108" height="48" rx="7" fill="#fdf4e6" stroke="#d9ad6a" stroke-width="1.4"/><text x="1184" y="313" text-anchor="middle" fill="#6b7280">102</text>
    <rect x="1258" y="284" width="108" height="48" rx="7" fill="#fdf4e6" stroke="#d9ad6a" stroke-width="1.4"/><text x="1312" y="313" text-anchor="middle" fill="#6b7280">187</text>
  </g>
  <text x="1120" y="352" text-anchor="middle" font-size="11.5" fill="#8b919d" font-style="italic">level 1 segments</text>

  <!-- Tier C: level 2 (8 segments) -->
  <g font-family="ui-monospace, monospace" font-size="12.5">
    <rect x="802"  y="404" width="70" height="46" rx="6" fill="#fdf4e6" stroke="#d9ad6a"/><text x="837"  y="432" text-anchor="middle" fill="#6b7280">2</text>
    <rect x="880"  y="404" width="70" height="46" rx="6" fill="#fdf4e6" stroke="#d9ad6a"/><text x="915"  y="432" text-anchor="middle" fill="#6b7280">23</text>
    <rect x="958"  y="404" width="70" height="46" rx="6" fill="#fdf4e6" stroke="#d9ad6a"/><text x="993"  y="432" text-anchor="middle" fill="#6b7280">31</text>
    <rect x="1036" y="404" width="70" height="46" rx="6" fill="#fdf4e6" stroke="#d9ad6a"/><text x="1071" y="432" text-anchor="middle" fill="#6b7280">48</text>
    <rect x="1114" y="404" width="70" height="46" rx="6" fill="#fbedd4" stroke="#b06a14" stroke-width="2"/><text x="1149" y="427" text-anchor="middle" fill="#b06a14" font-weight="700">71</text><text x="1149" y="442" text-anchor="middle" font-size="8.5" fill="#b06a14">slope·k+ic</text>
    <rect x="1192" y="404" width="70" height="46" rx="6" fill="#fdf4e6" stroke="#d9ad6a"/><text x="1227" y="432" text-anchor="middle" fill="#6b7280">102</text>
    <rect x="1270" y="404" width="70" height="46" rx="6" fill="#fdf4e6" stroke="#d9ad6a"/><text x="1305" y="432" text-anchor="middle" fill="#6b7280">158</text>
    <rect x="1348" y="404" width="70" height="46" rx="6" fill="#fdf4e6" stroke="#d9ad6a"/><text x="1383" y="432" text-anchor="middle" fill="#6b7280">187</text>
  </g>
  <text x="1120" y="470" text-anchor="middle" font-size="11.5" fill="#8b919d" font-style="italic">level 2 segments</text>

  <!-- PGM step captions -->
  <text x="1210" y="190" font-size="11.5" fill="#b06a14">① f(76) → pos 1</text>
  <text x="950" y="270" font-size="11.5" fill="#b06a14">② 2ε-search [2,31,102] → 31</text>
  <text x="1195" y="432" font-size="11.5" fill="#b06a14">③ 2ε-search [31,48,71] → 71</text>

  <!-- ============ SHARED DATA ARRAY ============ -->
  <text x="36" y="528" font-size="13" font-weight="600" fill="#3a3f4b">Sorted array A  (both end here)</text>
  <g font-family="ui-monospace, monospace" font-size="10">
    <!-- 34 cells, width 42, start 36 -->
    <!-- highlight window 16-18 -->
    <rect x="708" y="548" width="126" height="40" fill="#eaf5ef"/>
    <g fill="#20242e">
      <rect x="36"   y="548" width="42" height="40" fill="#fafbfc" stroke="#dde0e6"/><text x="57"   y="573" text-anchor="middle">2</text>
      <rect x="78"   y="548" width="42" height="40" fill="#fafbfc" stroke="#dde0e6"/><text x="99"   y="573" text-anchor="middle">12</text>
      <rect x="120"  y="548" width="42" height="40" fill="#fafbfc" stroke="#dde0e6"/><text x="141"  y="573" text-anchor="middle">15</text>
      <rect x="162"  y="548" width="42" height="40" fill="#fafbfc" stroke="#dde0e6"/><text x="183"  y="573" text-anchor="middle">18</text>
      <rect x="204"  y="548" width="42" height="40" fill="#fafbfc" stroke="#dde0e6"/><text x="225"  y="573" text-anchor="middle">23</text>
      <rect x="246"  y="548" width="42" height="40" fill="#fafbfc" stroke="#dde0e6"/><text x="267"  y="573" text-anchor="middle">24</text>
      <rect x="288"  y="548" width="42" height="40" fill="#fafbfc" stroke="#dde0e6"/><text x="309"  y="573" text-anchor="middle">29</text>
      <rect x="330"  y="548" width="42" height="40" fill="#fafbfc" stroke="#dde0e6"/><text x="351"  y="573" text-anchor="middle">31</text>
      <rect x="372"  y="548" width="42" height="40" fill="#fafbfc" stroke="#dde0e6"/><text x="393"  y="573" text-anchor="middle">34</text>
      <rect x="414"  y="548" width="42" height="40" fill="#fafbfc" stroke="#dde0e6"/><text x="435"  y="573" text-anchor="middle">36</text>
      <rect x="456"  y="548" width="42" height="40" fill="#fafbfc" stroke="#dde0e6"/><text x="477"  y="573" text-anchor="middle">38</text>
      <rect x="498"  y="548" width="42" height="40" fill="#fafbfc" stroke="#dde0e6"/><text x="519"  y="573" text-anchor="middle">48</text>
      <rect x="540"  y="548" width="42" height="40" fill="#fafbfc" stroke="#dde0e6"/><text x="561"  y="573" text-anchor="middle">55</text>
      <rect x="582"  y="548" width="42" height="40" fill="#fafbfc" stroke="#dde0e6"/><text x="603"  y="573" text-anchor="middle">59</text>
      <rect x="624"  y="548" width="42" height="40" fill="#fafbfc" stroke="#dde0e6"/><text x="645"  y="573" text-anchor="middle">60</text>
      <rect x="666"  y="548" width="42" height="40" fill="#fafbfc" stroke="#dde0e6"/><text x="687"  y="573" text-anchor="middle">71</text>
      <rect x="708"  y="548" width="42" height="40" fill="#eaf5ef" stroke="#9cc9b1"/><text x="729"  y="573" text-anchor="middle">73</text>
      <rect x="750"  y="548" width="42" height="40" fill="#eaf5ef" stroke="#9cc9b1"/><text x="771"  y="573" text-anchor="middle">74</text>
      <rect x="792"  y="548" width="42" height="40" fill="#bfe0cd" stroke="#2c6f50" stroke-width="2"/><text x="813"  y="573" text-anchor="middle" font-weight="700">76</text>
      <rect x="834"  y="548" width="42" height="40" fill="#fafbfc" stroke="#dde0e6"/><text x="855"  y="573" text-anchor="middle">88</text>
      <rect x="876"  y="548" width="42" height="40" fill="#fafbfc" stroke="#dde0e6"/><text x="897"  y="573" text-anchor="middle">95</text>
      <rect x="918"  y="548" width="42" height="40" fill="#fafbfc" stroke="#dde0e6"/><text x="939"  y="573" text-anchor="middle">102</text>
      <rect x="960"  y="548" width="42" height="40" fill="#fafbfc" stroke="#dde0e6"/><text x="981"  y="573" text-anchor="middle">115</text>
      <rect x="1002" y="548" width="42" height="40" fill="#fafbfc" stroke="#dde0e6"/><text x="1023" y="573" text-anchor="middle">122</text>
      <rect x="1044" y="548" width="42" height="40" fill="#fafbfc" stroke="#dde0e6"/><text x="1065" y="573" text-anchor="middle">123</text>
      <rect x="1086" y="548" width="42" height="40" fill="#fafbfc" stroke="#dde0e6"/><text x="1107" y="573" text-anchor="middle">124</text>
      <rect x="1128" y="548" width="42" height="40" fill="#fafbfc" stroke="#dde0e6"/><text x="1149" y="573" text-anchor="middle">158</text>
      <rect x="1170" y="548" width="42" height="40" fill="#fafbfc" stroke="#dde0e6"/><text x="1191" y="573" text-anchor="middle">159</text>
      <rect x="1212" y="548" width="42" height="40" fill="#fafbfc" stroke="#dde0e6"/><text x="1233" y="573" text-anchor="middle">161</text>
      <rect x="1254" y="548" width="42" height="40" fill="#fafbfc" stroke="#dde0e6"/><text x="1275" y="573" text-anchor="middle">164</text>
      <rect x="1296" y="548" width="42" height="40" fill="#fafbfc" stroke="#dde0e6"/><text x="1317" y="573" text-anchor="middle">165</text>
      <rect x="1338" y="548" width="42" height="40" fill="#fafbfc" stroke="#dde0e6"/><text x="1359" y="573" text-anchor="middle">187</text>
      <rect x="1380" y="548" width="42" height="40" fill="#fafbfc" stroke="#dde0e6"/><text x="1401" y="573" text-anchor="middle">189</text>
      <rect x="1422" y="548" width="42" height="40" fill="#fafbfc" stroke="#dde0e6"/><text x="1443" y="573" text-anchor="middle">190</text>
    </g>
  </g>
  <!-- position markers under window -->
  <text x="729" y="603" text-anchor="middle" font-size="10" fill="#8b919d">16</text>
  <text x="771" y="603" text-anchor="middle" font-size="10" fill="#8b919d">17</text>
  <text x="813" y="603" text-anchor="middle" font-size="10" fill="#2c6f50" font-weight="700">18 ✓</text>
  <text x="771" y="623" text-anchor="middle" font-size="11.5" fill="#2c6f50" font-weight="600">final binary search: A[16..18] within ±ε → found at position 18</text>

  <!-- ============ ANATOMY SECTION ============ -->
  <line x1="36" y1="650" x2="1464" y2="650" stroke="#e2e5ea" stroke-width="1.5"/>
  <text x="750" y="684" text-anchor="middle" font-size="21" font-weight="700" fill="#20242e">Anatomy: what's actually inside each node</text>
  <line x1="750" y1="704" x2="750" y2="1146" stroke="#dfe2e9" stroke-width="1.5" stroke-dasharray="3 5"/>
  <text x="380"  y="724" text-anchor="middle" font-size="15" font-weight="700" fill="#2f4b86">FITing-Tree — three different node types</text>
  <text x="1120" y="724" text-anchor="middle" font-size="15" font-weight="700" fill="#b06a14">PGM-Index — one node type, everywhere</text>

  <!-- FIT card 1: B+-tree inner node -->
  <text x="58" y="752" font-size="13" font-weight="700" fill="#2f4b86">① B+-tree inner node</text>
  <g font-family="ui-monospace, monospace" font-size="12.5">
    <rect x="70"  y="760" width="44" height="42" rx="4" fill="#dde6f5" stroke="#2f4b86"/><text x="92"  y="786" text-anchor="middle" fill="#2f4b86">•→</text>
    <rect x="114" y="760" width="70" height="42" rx="4" fill="#e8edf8" stroke="#2f4b86"/><text x="149" y="786" text-anchor="middle" fill="#20242e">48</text>
    <rect x="184" y="760" width="44" height="42" rx="4" fill="#dde6f5" stroke="#2f4b86"/><text x="206" y="786" text-anchor="middle" fill="#2f4b86">•→</text>
    <rect x="228" y="760" width="70" height="42" rx="4" fill="#e8edf8" stroke="#2f4b86"/><text x="263" y="786" text-anchor="middle" fill="#20242e">158</text>
    <rect x="298" y="760" width="44" height="42" rx="4" fill="#dde6f5" stroke="#2f4b86"/><text x="320" y="786" text-anchor="middle" fill="#2f4b86">•→</text>
  </g>
  <text x="356" y="774" font-size="11.5" fill="#3a3f4b"><tspan font-weight="700">separator keys</tspan> (48, 158) +</text>
  <text x="356" y="790" font-size="11.5" fill="#3a3f4b"><tspan font-weight="700">child pointers</tspan> (•→) to lower nodes.</text>
  <text x="356" y="806" font-size="11" fill="#8b919d">route: compare k to separators → follow a pointer</text>

  <!-- FIT card 2: B+-tree leaf node -->
  <text x="58" y="838" font-size="13" font-weight="700" fill="#2f4b86">② B+-tree leaf node</text>
  <g font-family="ui-monospace, monospace" font-size="12.5">
    <rect x="70"  y="846" width="96" height="42" rx="4" fill="#e8edf8" stroke="#2f4b86"/><text x="118" y="872" text-anchor="middle" fill="#20242e">48 │ •→</text>
    <rect x="170" y="846" width="96" height="42" rx="4" fill="#e8edf8" stroke="#2f4b86"/><text x="218" y="872" text-anchor="middle" fill="#20242e">71 │ •→</text>
    <rect x="270" y="846" width="96" height="42" rx="4" fill="#e8edf8" stroke="#2f4b86"/><text x="318" y="872" text-anchor="middle" fill="#20242e">102 │ •→</text>
  </g>
  <text x="378" y="862" font-size="11.5" fill="#3a3f4b">each segment's <tspan font-weight="700">first-key + a pointer</tspan> to it.</text>
  <text x="378" y="878" font-size="11" fill="#8b919d">still just keys + pointers — the bottom of the tree</text>

  <!-- FIT card 3: segment object -->
  <text x="58" y="922" font-size="13" font-weight="700" fill="#b06a14">③ Segment <tspan font-weight="400" fill="#6b7280">— the learned part, a separate object the leaf points at</tspan></text>
  <g font-family="ui-monospace, monospace" font-size="12">
    <rect x="70"  y="930" width="116" height="44" rx="4" fill="#fbedd4" stroke="#b06a14"/><text x="128" y="957" text-anchor="middle" fill="#20242e">startKey 71</text>
    <rect x="190" y="930" width="92"  height="44" rx="4" fill="#fbedd4" stroke="#b06a14"/><text x="236" y="957" text-anchor="middle" fill="#20242e">slope m</text>
    <rect x="286" y="930" width="104" height="44" rx="4" fill="#fbedd4" stroke="#b06a14"/><text x="338" y="957" text-anchor="middle" fill="#20242e">dataPtr →A</text>
    <rect x="394" y="930" width="96"  height="44" rx="4" fill="#d8ece0" stroke="#2c6f50"/><text x="442" y="957" text-anchor="middle" fill="#2c6f50">buffer ⋯</text>
  </g>
  <text x="70" y="994" font-size="11.5" fill="#3a3f4b">predict: <tspan font-family="ui-monospace, monospace">pos = (k − startKey)·slope</tspan> → binary-search ±ε in data. The green <tspan font-weight="700" fill="#2c6f50">buffer</tspan> absorbs inserts (delta strategy).</text>
  <text x="70" y="1014" font-size="11.5" font-style="italic" fill="#8b919d">→ Two different kinds of node (B+-tree node vs. segment) stitched together — the "mixes traditional + learned" design.</text>

  <!-- PGM card: the triple -->
  <text x="780" y="752" font-size="13" font-weight="700" fill="#b06a14">Every node — root, internal, and leaf — is the same triple:</text>
  <g font-family="ui-monospace, monospace">
    <rect x="800" y="764" width="600" height="64" rx="8" fill="#fbedd4" stroke="#b06a14" stroke-width="2"/>
    <line x1="1000" y1="764" x2="1000" y2="828" stroke="#d9ad6a"/>
    <line x1="1200" y1="764" x2="1200" y2="828" stroke="#d9ad6a"/>
    <text x="900"  y="792" text-anchor="middle" font-size="13" fill="#b06a14" font-weight="700">key</text>
    <text x="900"  y="814" text-anchor="middle" font-size="14" fill="#20242e">71</text>
    <text x="1100" y="792" text-anchor="middle" font-size="13" fill="#b06a14" font-weight="700">slope</text>
    <text x="1100" y="814" text-anchor="middle" font-size="14" fill="#20242e">m</text>
    <text x="1300" y="792" text-anchor="middle" font-size="13" fill="#b06a14" font-weight="700">intercept</text>
    <text x="1300" y="814" text-anchor="middle" font-size="14" fill="#20242e">b</text>
  </g>
  <text x="900"  y="848" text-anchor="middle" font-size="11" fill="#6b7280">which segment owns k</text>
  <text x="1200" y="848" text-anchor="middle" font-size="11" fill="#6b7280">fs(k) = slope·k + intercept → predicted position</text>
  <text x="800" y="878" font-size="12" fill="#3a3f4b"><tspan font-weight="700">Two floats + one key.</tspan> That is the entire node.</text>

  <!-- computed navigation illustration -->
  <g font-family="ui-monospace, monospace" font-size="11">
    <rect x="800" y="896" width="120" height="38" rx="6" fill="#fbedd4" stroke="#b06a14"/><text x="860" y="920" text-anchor="middle" fill="#20242e">fs(k) = 17</text>
    <line x1="924" y1="915" x2="966" y2="915" stroke="#cf4436" stroke-width="2" marker-end="url(#aRed)"/>
    <text x="945" y="906" text-anchor="middle" font-size="9.5" fill="#cf4436">compute</text>
    <g>
      <rect x="972"  y="896" width="30" height="38" rx="3" fill="#fafbfc" stroke="#dde0e6"/>
      <rect x="1004" y="896" width="30" height="38" rx="3" fill="#d8ece0" stroke="#2c6f50"/>
      <rect x="1036" y="896" width="30" height="38" rx="3" fill="#bfe0cd" stroke="#2c6f50" stroke-width="1.6"/>
      <rect x="1068" y="896" width="30" height="38" rx="3" fill="#d8ece0" stroke="#2c6f50"/>
      <rect x="1100" y="896" width="30" height="38" rx="3" fill="#fafbfc" stroke="#dde0e6"/>
    </g>
    <text x="1051" y="950" text-anchor="middle" font-size="10" fill="#2c6f50">2ε window in level below</text>
  </g>
  <text x="800" y="982" font-size="11.5" fill="#3a3f4b"><tspan font-weight="700">No child pointers, no separators.</tspan> The next level is found by <tspan font-weight="700">computing</tspan> fs(k), then binary-searching a 2ε window —</text>
  <text x="800" y="1000" font-size="11.5" fill="#3a3f4b">navigation is arithmetic, not a stored pointer.</text>
  <text x="800" y="1020" font-size="11.5" font-style="italic" fill="#8b919d">→ One uniform learned object at every level → a "pure learned index."</text>

  <!-- ============ SLIM TAKEAWAY ============ -->
  <rect x="36" y="1158" width="1428" height="128" rx="10" fill="#f7f8fa" stroke="#e2e5ea"/>
  <text x="58" y="1188" font-size="15" font-weight="700" fill="#20242e">The cost of that difference</text>
  <text x="58" y="1216" font-size="12.5" fill="#3a3f4b">A <tspan font-weight="700" fill="#2f4b86">B+-tree node</tspan> spends real bytes on separator keys <tspan font-weight="700">and</tspan> child pointers at every level — and FITing-Tree hangs a separate slope/dataPtr/buffer</text>
  <text x="58" y="1234" font-size="12.5" fill="#3a3f4b">segment object below the tree. A <tspan font-weight="700" fill="#b06a14">PGM node</tspan> is just <tspan font-family="ui-monospace, monospace">(key, slope, intercept)</tspan> — two floats and a key — and <tspan font-weight="700">recomputes</tspan> navigation instead of storing pointers.</text>
  <text x="58" y="1258" font-size="12.5" fill="#3a3f4b">That uniformity is a big part of why PGM is smaller, and why it can call itself <tspan font-weight="700">"fully learned": one kind of object, top to bottom</tspan> — no traditional structure anywhere.</text>
  <text x="58" y="1278" font-size="12" font-style="italic" fill="#8b919d">Both diagrams share the same leaf segments and the same final search window — only the path down to it, and what each node stores, differs.</text>
</svg>
