<svg viewBox="0 0 1440 960" xmlns="http://www.w3.org/2000/svg" font-family="'Segoe UI',system-ui,sans-serif">
<rect x="0" y="0" width="1440" height="960" fill="#ffffff"/>
<defs><marker id="a" viewBox="0 0 10 10" refX="8" refY="5" markerWidth="7" markerHeight="7" orient="auto-start-reverse"><path d="M0,0 L10,5 L0,10 z" fill="#6b7280"/></marker><marker id="ar" viewBox="0 0 10 10" refX="8" refY="5" markerWidth="7" markerHeight="7" orient="auto-start-reverse"><path d="M0,0 L10,5 L0,10 z" fill="#cf4436"/></marker><marker id="ag" viewBox="0 0 10 10" refX="8" refY="5" markerWidth="7" markerHeight="7" orient="auto-start-reverse"><path d="M0,0 L10,5 L0,10 z" fill="#2c7d52"/></marker><marker id="ap" viewBox="0 0 10 10" refX="8" refY="5" markerWidth="7" markerHeight="7" orient="auto-start-reverse"><path d="M0,0 L10,5 L0,10 z" fill="#7a4fa3"/></marker></defs>
<text x="720.0" y="40" text-anchor="middle" font-size="24" font-weight="700" fill="#20242e">Inside a data node: gapped array + model-based insertion + exponential search</text>
<text x="720.0" y="64" text-anchor="middle" font-size="13.5" font-weight="400" fill="#6b7280">The three co-designed leaf mechanisms — together they keep prediction error tiny, so bound-free search stays fast.</text>
<text x="40" y="104" text-anchor="start" font-size="15" font-weight="700" fill="#2f6f8f">① Gapped Array layout</text>
<text x="40" y="124" text-anchor="start" font-size="11" font-weight="400" fill="#20242e">Empty slots scattered BETWEEN elements (a B+-tree puts free space only at the end). A bitmap marks key vs gap; gaps read as the nearest key to the right.</text>
<rect x="120" y="160" width="30" height="30" rx="3" fill="#e3eef2" stroke="#2f6f8f" stroke-width="1.3"/>
<text x="135.0" y="178.6" text-anchor="middle" font-size="11" font-weight="400" fill="#20242e">2</text>
<rect x="150" y="160" width="30" height="30" rx="3" fill="#eef0f3" stroke="#c8cdd6" stroke-width="1"/>
<rect x="180" y="160" width="30" height="30" rx="3" fill="#e3eef2" stroke="#2f6f8f" stroke-width="1.3"/>
<text x="195.0" y="178.6" text-anchor="middle" font-size="11" font-weight="400" fill="#20242e">5</text>
<rect x="210" y="160" width="30" height="30" rx="3" fill="#e3eef2" stroke="#2f6f8f" stroke-width="1.3"/>
<text x="225.0" y="178.6" text-anchor="middle" font-size="11" font-weight="400" fill="#20242e">7</text>
<rect x="240" y="160" width="30" height="30" rx="3" fill="#eef0f3" stroke="#c8cdd6" stroke-width="1"/>
<rect x="270" y="160" width="30" height="30" rx="3" fill="#e3eef2" stroke="#2f6f8f" stroke-width="1.3"/>
<text x="285.0" y="178.6" text-anchor="middle" font-size="11" font-weight="400" fill="#20242e">11</text>
<rect x="300" y="160" width="30" height="30" rx="3" fill="#eef0f3" stroke="#c8cdd6" stroke-width="1"/>
<rect x="330" y="160" width="30" height="30" rx="3" fill="#e3eef2" stroke="#2f6f8f" stroke-width="1.3"/>
<text x="345.0" y="178.6" text-anchor="middle" font-size="11" font-weight="400" fill="#20242e">14</text>
<rect x="360" y="160" width="30" height="30" rx="3" fill="#e3eef2" stroke="#2f6f8f" stroke-width="1.3"/>
<text x="375.0" y="178.6" text-anchor="middle" font-size="11" font-weight="400" fill="#20242e">16</text>
<rect x="390" y="160" width="30" height="30" rx="3" fill="#eef0f3" stroke="#c8cdd6" stroke-width="1"/>
<rect x="420" y="160" width="30" height="30" rx="3" fill="#e3eef2" stroke="#2f6f8f" stroke-width="1.3"/>
<text x="435.0" y="178.6" text-anchor="middle" font-size="11" font-weight="400" fill="#20242e">19</text>
<rect x="450" y="160" width="30" height="30" rx="3" fill="#e3eef2" stroke="#2f6f8f" stroke-width="1.3"/>
<text x="465.0" y="178.6" text-anchor="middle" font-size="11" font-weight="400" fill="#20242e">22</text>
<text x="135.0" y="205" text-anchor="middle" font-size="10" font-weight="700" fill="#2f6f8f">1</text>
<text x="165.0" y="205" text-anchor="middle" font-size="10" font-weight="700" fill="#8b919d">0</text>
<text x="195.0" y="205" text-anchor="middle" font-size="10" font-weight="700" fill="#2f6f8f">1</text>
<text x="225.0" y="205" text-anchor="middle" font-size="10" font-weight="700" fill="#2f6f8f">1</text>
<text x="255.0" y="205" text-anchor="middle" font-size="10" font-weight="700" fill="#8b919d">0</text>
<text x="285.0" y="205" text-anchor="middle" font-size="10" font-weight="700" fill="#2f6f8f">1</text>
<text x="315.0" y="205" text-anchor="middle" font-size="10" font-weight="700" fill="#8b919d">0</text>
<text x="345.0" y="205" text-anchor="middle" font-size="10" font-weight="700" fill="#2f6f8f">1</text>
<text x="375.0" y="205" text-anchor="middle" font-size="10" font-weight="700" fill="#2f6f8f">1</text>
<text x="405.0" y="205" text-anchor="middle" font-size="10" font-weight="700" fill="#8b919d">0</text>
<text x="435.0" y="205" text-anchor="middle" font-size="10" font-weight="700" fill="#2f6f8f">1</text>
<text x="465.0" y="205" text-anchor="middle" font-size="10" font-weight="700" fill="#2f6f8f">1</text>
<text x="112" y="205" text-anchor="end" font-size="9.5" font-weight="400" fill="#8b919d">bitmap</text>
<text x="40" y="250" text-anchor="start" font-size="10.5" font-weight="400" fill="#6b7280">Density kept in a band  dₗ=0.6 … dᵤ=0.8  (avg ~0.7).  'Full' = next insert would exceed dᵤ.</text>
<text x="40" y="300" text-anchor="start" font-size="15" font-weight="700" fill="#2c7d52">② Model-based insertion</text>
<text x="40" y="320" text-anchor="start" font-size="11" font-weight="400" fill="#20242e">Place the new key WHERE THE MODEL PREDICTS (data conforms to the model). Two cases:</text>
<text x="120" y="352" text-anchor="start" font-size="10.5" font-weight="400" fill="#20242e">case A — predicted slot is a gap → drop in (O(1)):</text>
<rect x="120" y="366" width="30" height="30" rx="3" fill="#e3eef2" stroke="#2f6f8f" stroke-width="1.3"/>
<text x="135.0" y="384.6" text-anchor="middle" font-size="11" font-weight="400" fill="#20242e">2</text>
<rect x="150" y="366" width="30" height="30" rx="3" fill="#eef0f3" stroke="#c8cdd6" stroke-width="1"/>
<rect x="180" y="366" width="30" height="30" rx="3" fill="#e3eef2" stroke="#2f6f8f" stroke-width="1.3"/>
<text x="195.0" y="384.6" text-anchor="middle" font-size="11" font-weight="400" fill="#20242e">5</text>
<rect x="210" y="366" width="30" height="30" rx="3" fill="#e3eef2" stroke="#2f6f8f" stroke-width="1.3"/>
<text x="225.0" y="384.6" text-anchor="middle" font-size="11" font-weight="400" fill="#20242e">7</text>
<rect x="240" y="366" width="30" height="30" rx="3" fill="#eef0f3" stroke="#c8cdd6" stroke-width="1"/>
<rect x="270" y="366" width="30" height="30" rx="3" fill="#e3eef2" stroke="#2f6f8f" stroke-width="1.3"/>
<text x="285.0" y="384.6" text-anchor="middle" font-size="11" font-weight="400" fill="#20242e">11</text>
<path d="M255.0,340 L255.0,363" stroke="#2c7d52" stroke-width="2" fill="none" marker-end="url(#a)"/>
<text x="255.0" y="335" text-anchor="middle" font-size="9.5" font-weight="700" fill="#2c7d52">predicts</text>
<text x="318" y="388" text-anchor="start" font-size="10" font-weight="700" fill="#2c7d52">key 9 → gap → done</text>
<text x="120" y="452" text-anchor="start" font-size="10.5" font-weight="400" fill="#20242e">case B — predicted slot occupied → shift toward nearest gap, then insert:</text>
<rect x="120" y="466" width="30" height="30" rx="3" fill="#e3eef2" stroke="#2f6f8f" stroke-width="1.3"/>
<text x="135.0" y="484.6" text-anchor="middle" font-size="11" font-weight="400" fill="#20242e">2</text>
<rect x="150" y="466" width="30" height="30" rx="3" fill="#e3eef2" stroke="#2f6f8f" stroke-width="1.3"/>
<text x="165.0" y="484.6" text-anchor="middle" font-size="11" font-weight="400" fill="#20242e">5</text>
<rect x="180" y="466" width="30" height="30" rx="3" fill="#e3eef2" stroke="#2f6f8f" stroke-width="1.3"/>
<text x="195.0" y="484.6" text-anchor="middle" font-size="11" font-weight="400" fill="#20242e">7</text>
<rect x="210" y="466" width="30" height="30" rx="3" fill="#eef0f3" stroke="#c8cdd6" stroke-width="1"/>
<rect x="240" y="466" width="30" height="30" rx="3" fill="#e3eef2" stroke="#2f6f8f" stroke-width="1.3"/>
<text x="255.0" y="484.6" text-anchor="middle" font-size="11" font-weight="400" fill="#20242e">11</text>
<rect x="270" y="466" width="30" height="30" rx="3" fill="#e3eef2" stroke="#2f6f8f" stroke-width="1.3"/>
<text x="285.0" y="484.6" text-anchor="middle" font-size="11" font-weight="400" fill="#20242e">14</text>
<path d="M165.0,440 L165.0,463" stroke="#2c7d52" stroke-width="2" fill="none" marker-end="url(#a)"/>
<text x="165.0" y="435" text-anchor="middle" font-size="9.5" font-weight="700" fill="#2c7d52">predicts</text>
<path d="M165,500 L225,500" stroke="#cf4436" stroke-width="1.8" fill="none" marker-end="url(#ar)"/>
<text x="234" y="504" text-anchor="start" font-size="10" font-weight="400" fill="#cf4436">shift right to the gap</text>
<text x="40" y="540" text-anchor="start" font-size="10.5" font-weight="400" fill="#6b7280" font-style="italic">Self-consistent placement → error d stays small → exponential search (next) is cheap. Double edge: gaps fill / drift grows → error climbs (the degradation seam).</text>
<text x="40" y="600" text-anchor="start" font-size="15" font-weight="700" fill="#b06a14">③ Exponential search (bound-free last mile)</text>
<text x="40" y="620" text-anchor="start" font-size="11" font-weight="400" fill="#20242e">Start at the prediction, probe outward in DOUBLING jumps until you overshoot, then binary-search that window. Cost = O(log d) in the ACTUAL error d.</text>
<line x1="120" y1="730" x2="1330" y2="730" stroke="#c8cdd6" stroke-width="1.3"/>
<line x1="120.0" y1="726" x2="120.0" y2="734" stroke="#8b919d" stroke-width="1"/>
<text x="120.0" y="747" text-anchor="middle" font-size="9" font-weight="400" fill="#8b919d">0</text>
<line x1="271.25" y1="726" x2="271.25" y2="734" stroke="#8b919d" stroke-width="1"/>
<text x="271.25" y="747" text-anchor="middle" font-size="9" font-weight="400" fill="#8b919d">5</text>
<line x1="422.5" y1="726" x2="422.5" y2="734" stroke="#8b919d" stroke-width="1"/>
<text x="422.5" y="747" text-anchor="middle" font-size="9" font-weight="400" fill="#8b919d">10</text>
<line x1="573.75" y1="726" x2="573.75" y2="734" stroke="#8b919d" stroke-width="1"/>
<text x="573.75" y="747" text-anchor="middle" font-size="9" font-weight="400" fill="#8b919d">15</text>
<line x1="725.0" y1="726" x2="725.0" y2="734" stroke="#8b919d" stroke-width="1"/>
<text x="725.0" y="747" text-anchor="middle" font-size="9" font-weight="400" fill="#8b919d">20</text>
<line x1="876.25" y1="726" x2="876.25" y2="734" stroke="#8b919d" stroke-width="1"/>
<text x="876.25" y="747" text-anchor="middle" font-size="9" font-weight="400" fill="#8b919d">25</text>
<line x1="1027.5" y1="726" x2="1027.5" y2="734" stroke="#8b919d" stroke-width="1"/>
<text x="1027.5" y="747" text-anchor="middle" font-size="9" font-weight="400" fill="#8b919d">30</text>
<line x1="1178.75" y1="726" x2="1178.75" y2="734" stroke="#8b919d" stroke-width="1"/>
<text x="1178.75" y="747" text-anchor="middle" font-size="9" font-weight="400" fill="#8b919d">35</text>
<line x1="1330.0" y1="726" x2="1330.0" y2="734" stroke="#8b919d" stroke-width="1"/>
<text x="1330.0" y="747" text-anchor="middle" font-size="9" font-weight="400" fill="#8b919d">40</text>
<path d="M543.5,724 L543.5,728" stroke="#b06a14" stroke-width="2" fill="none" marker-end="url(#a)"/>
<circle cx="785.5" cy="730" r="5" fill="#2c7d52"/>
<text x="785.5" y="763" text-anchor="middle" font-size="10" font-weight="700" fill="#2c7d52">true pos (22)</text>
<text x="543.5" y="763" text-anchor="middle" font-size="10" font-weight="700" fill="#b06a14">prediction (14)</text>
<path d="M543.5,708 L573.75,708" stroke="#2c7d52" stroke-width="1.6" fill="none" marker-end="url(#ag)"/>
<text x="581.75" y="712" text-anchor="start" font-size="9" font-weight="700" fill="#2c7d52">+1 → 15</text>
<path d="M543.5,688 L604.0,688" stroke="#2c7d52" stroke-width="1.6" fill="none" marker-end="url(#ag)"/>
<text x="612.0" y="692" text-anchor="start" font-size="9" font-weight="700" fill="#2c7d52">+2 → 16</text>
<path d="M543.5,668 L664.5,668" stroke="#2c7d52" stroke-width="1.6" fill="none" marker-end="url(#ag)"/>
<text x="672.5" y="672" text-anchor="start" font-size="9" font-weight="700" fill="#2c7d52">+4 → 18</text>
<path d="M543.5,648 L785.5,648" stroke="#2c7d52" stroke-width="1.6" fill="none" marker-end="url(#ag)"/>
<text x="793.5" y="652" text-anchor="start" font-size="9" font-weight="700" fill="#2c7d52">+8 → 22</text>
<path d="M543.5,628 L1027.5,628" stroke="#cf4436" stroke-width="1.6" fill="none" marker-end="url(#ar)"/>
<text x="1035.5" y="632" text-anchor="start" font-size="9" font-weight="700" fill="#cf4436">+16 → 30  overshoot → bracket [18,30]</text>
<text x="40" y="800" text-anchor="start" font-size="10.5" font-weight="400" fill="#20242e">Then binary-search the bracket [18,30] → found at 22.  A tiny error finishes in a few probes; binary search would scan a fixed window regardless.</text>
<rect x="40" y="824" width="1360" height="116" rx="8" fill="#fff6e8" stroke="#e7d4ad" stroke-width="1.5"/>
<text x="62" y="850" text-anchor="start" font-size="13" font-weight="700" fill="#b06a14">Why exponential, not binary-within-ε?</text>
<text x="62" y="872" text-anchor="start" font-size="10.5" font-weight="400" fill="#20242e">• Binary search always scans a FIXED window → constant cost no matter how good the prediction. Exponential search costs O(log d), so accurate models win.</text>
<text x="62" y="892" text-anchor="start" font-size="10.5" font-weight="400" fill="#20242e">• It also removes stored error bounds (less metadata). Trade-off: NO worst-case ε guarantee — error is emergent, kept small by ② not capped by math.</text>
<text x="62" y="918" text-anchor="start" font-size="10.5" font-weight="700" fill="#7a4fa3">PGM contrast: PGM guarantees |error| ≤ ε and binary-searches a fixed 2ε window. ALEX lets error emerge and adapts the search to it — the bound-vs-cost-model fork.</text>
</svg>